<svg xmlns="http://www.w3.org/2000/svg" xmlns:xlink="http://www.w3.org/1999/xlink" width="250" zoomAndPan="magnify" viewBox="0 0 187.5 187.499992" height="250" preserveAspectRatio="xMidYMid meet" version="1.0"><defs><clipPath id="7111e50073"><path d="M 0 0 L 187 0 L 187 187 L 0 187 Z M 0 0 " clip-rule="nonzero"/></clipPath><clipPath id="706c2919ac"><path d="M 93.5 0 C 41.863281 0 0 41.863281 0 93.5 C 0 145.140625 41.863281 187 93.5 187 C 145.140625 187 187 145.140625 187 93.5 C 187 41.863281 145.140625 0 93.5 0 Z M 93.5 0 " clip-rule="nonzero"/></clipPath><clipPath id="d02ce53aa6"><path d="M 37.398438 71 L 149.601562 71 L 149.601562 149.601562 L 37.398438 149.601562 Z M 37.398438 71 " clip-rule="nonzero"/></clipPath></defs><g clip-path="url(#7111e50073)"><g clip-path="url(#706c2919ac)"><path fill="#ffffff" d="M 0 0 L 187 0 L 187 187 L 0 187 Z M 0 0 " fill-opacity="1" fill-rule="nonzero"/><path stroke-linecap="butt" transform="matrix(0.748005, 0, 0, 0.748005, 0.000004, 0)" fill="none" stroke-linejoin="miter" d="M 124.999108 0 C 55.966551 0 -0.00000534756 55.966557 -0.00000534756 124.999114 C -0.00000534756 194.036893 55.966551 249.998227 124.999108 249.998227 C 194.036887 249.998227 249.998222 194.036893 249.998222 124.999114 C 249.998222 55.966557 194.036887 0 124.999108 0 Z M 124.999108 0 " stroke="#000000" stroke-width="8" stroke-opacity="1" stroke-miterlimit="4"/></g></g><path fill="#000000" d="M 80.496094 116.164062 L 80.496094 131.582031 L 70.957031 115.226562 C 70.746094 114.863281 70.445312 114.605469 70.058594 114.445312 C 69.667969 114.285156 69.273438 114.261719 68.867188 114.371094 C 68.460938 114.480469 68.132812 114.699219 67.875 115.035156 C 67.621094 115.367188 67.492188 115.742188 67.492188 116.164062 L 67.492188 138.457031 C 67.492188 138.703125 67.539062 138.9375 67.636719 139.167969 C 67.730469 139.394531 67.863281 139.59375 68.039062 139.769531 C 68.210938 139.941406 68.414062 140.078125 68.640625 140.171875 C 68.867188 140.265625 69.105469 140.3125 69.351562 140.3125 C 69.597656 140.3125 69.835938 140.265625 70.0625 140.171875 C 70.289062 140.078125 70.492188 139.941406 70.664062 139.769531 C 70.839844 139.59375 70.972656 139.394531 71.066406 139.167969 C 71.160156 138.9375 71.210938 138.703125 71.210938 138.457031 L 71.210938 123.035156 L 80.75 139.390625 C 80.960938 139.753906 81.261719 140.015625 81.648438 140.175781 C 82.039062 140.332031 82.433594 140.359375 82.839844 140.25 C 83.246094 140.140625 83.574219 139.917969 83.832031 139.585938 C 84.085938 139.25 84.210938 138.875 84.210938 138.457031 L 84.210938 116.164062 C 84.210938 115.917969 84.164062 115.679688 84.070312 115.453125 C 83.976562 115.226562 83.84375 115.023438 83.667969 114.851562 C 83.496094 114.675781 83.292969 114.542969 83.066406 114.449219 C 82.839844 114.351562 82.601562 114.304688 82.355469 114.304688 C 82.109375 114.304688 81.871094 114.351562 81.644531 114.449219 C 81.417969 114.542969 81.214844 114.675781 81.042969 114.851562 C 80.867188 115.023438 80.734375 115.226562 80.636719 115.453125 C 80.542969 115.679688 80.496094 115.917969 80.496094 116.164062 Z M 80.496094 116.164062 " fill-opacity="1" fill-rule="nonzero"/><path fill="#000000" d="M 52.632812 114.304688 C 52.265625 114.304688 51.90625 114.34375 51.546875 114.414062 C 51.1875 114.484375 50.839844 114.589844 50.5 114.730469 C 50.164062 114.871094 49.84375 115.042969 49.539062 115.246094 C 49.234375 115.449219 48.953125 115.679688 48.695312 115.941406 C 48.433594 116.199219 48.203125 116.480469 48 116.785156 C 47.796875 117.089844 47.625 117.410156 47.484375 117.746094 C 47.34375 118.085938 47.238281 118.433594 47.167969 118.792969 C 47.097656 119.152344 47.058594 119.511719 47.058594 119.878906 L 47.058594 134.738281 C 47.058594 135.105469 47.097656 135.46875 47.167969 135.828125 C 47.238281 136.183594 47.34375 136.535156 47.484375 136.871094 C 47.625 137.210938 47.796875 137.53125 48 137.835938 C 48.203125 138.140625 48.433594 138.421875 48.695312 138.679688 C 48.953125 138.9375 49.234375 139.167969 49.539062 139.371094 C 49.84375 139.574219 50.164062 139.746094 50.5 139.886719 C 50.839844 140.027344 51.1875 140.132812 51.546875 140.203125 C 51.90625 140.277344 52.265625 140.3125 52.632812 140.3125 L 58.207031 140.3125 C 58.570312 140.3125 58.933594 140.277344 59.292969 140.203125 C 59.652344 140.132812 60 140.027344 60.335938 139.886719 C 60.675781 139.746094 60.996094 139.574219 61.300781 139.371094 C 61.605469 139.167969 61.886719 138.9375 62.144531 138.679688 C 62.402344 138.421875 62.632812 138.140625 62.835938 137.835938 C 63.039062 137.53125 63.210938 137.210938 63.351562 136.871094 C 63.492188 136.535156 63.597656 136.183594 63.671875 135.828125 C 63.742188 135.46875 63.777344 135.105469 63.777344 134.738281 L 63.777344 119.878906 C 63.777344 119.511719 63.742188 119.152344 63.671875 118.792969 C 63.597656 118.433594 63.492188 118.085938 63.351562 117.746094 C 63.210938 117.410156 63.039062 117.089844 62.835938 116.785156 C 62.632812 116.480469 62.402344 116.199219 62.144531 115.941406 C 61.886719 115.679688 61.605469 115.449219 61.300781 115.246094 C 60.996094 115.042969 60.675781 114.871094 60.335938 114.730469 C 60 114.589844 59.652344 114.484375 59.292969 114.414062 C 58.933594 114.34375 58.570312 114.304688 58.207031 114.304688 Z M 60.0625 119.878906 L 60.0625 134.738281 C 60.0625 134.984375 60.015625 135.222656 59.921875 135.449219 C 59.828125 135.679688 59.691406 135.878906 59.519531 136.054688 C 59.34375 136.226562 59.144531 136.363281 58.917969 136.457031 C 58.6875 136.550781 58.453125 136.597656 58.207031 136.597656 L 52.632812 136.597656 C 52.386719 136.597656 52.148438 136.550781 51.921875 136.457031 C 51.695312 136.363281 51.492188 136.226562 51.320312 136.054688 C 51.144531 135.878906 51.011719 135.679688 50.917969 135.449219 C 50.824219 135.222656 50.777344 134.984375 50.773438 134.738281 L 50.773438 119.878906 C 50.777344 119.632812 50.824219 119.394531 50.917969 119.167969 C 51.011719 118.941406 51.144531 118.738281 51.320312 118.566406 C 51.492188 118.390625 51.695312 118.257812 51.921875 118.164062 C 52.148438 118.070312 52.386719 118.023438 52.632812 118.019531 L 58.207031 118.019531 C 58.453125 118.023438 58.6875 118.070312 58.917969 118.164062 C 59.144531 118.257812 59.34375 118.390625 59.519531 118.566406 C 59.691406 118.738281 59.828125 118.941406 59.921875 119.167969 C 60.015625 119.394531 60.0625 119.632812 60.0625 119.878906 Z M 60.0625 119.878906 " fill-opacity="1" fill-rule="nonzero"/><path fill="#000000" d="M 110.21875 140.3125 C 110.464844 140.3125 110.703125 140.265625 110.929688 140.171875 C 111.15625 140.078125 111.359375 139.941406 111.53125 139.769531 C 111.707031 139.59375 111.839844 139.394531 111.9375 139.167969 C 112.03125 138.9375 112.078125 138.703125 112.078125 138.457031 L 112.078125 119.878906 C 112.078125 119.511719 112.039062 119.152344 111.96875 118.792969 C 111.898438 118.433594 111.792969 118.085938 111.652344 117.746094 C 111.511719 117.410156 111.339844 117.089844 111.136719 116.785156 C 110.933594 116.480469 110.703125 116.199219 110.441406 115.941406 C 110.183594 115.679688 109.902344 115.449219 109.597656 115.246094 C 109.292969 115.042969 108.972656 114.871094 108.636719 114.730469 C 108.296875 114.589844 107.949219 114.484375 107.589844 114.414062 C 107.230469 114.34375 106.871094 114.304688 106.503906 114.304688 L 100.929688 114.304688 C 100.566406 114.304688 100.203125 114.34375 99.84375 114.414062 C 99.484375 114.484375 99.136719 114.589844 98.800781 114.730469 C 98.460938 114.871094 98.140625 115.042969 97.835938 115.246094 C 97.53125 115.449219 97.25 115.679688 96.992188 115.941406 C 96.734375 116.199219 96.503906 116.480469 96.300781 116.785156 C 96.097656 117.089844 95.925781 117.410156 95.785156 117.746094 C 95.644531 118.085938 95.539062 118.433594 95.464844 118.792969 C 95.394531 119.152344 95.359375 119.511719 95.359375 119.878906 L 95.359375 138.457031 C 95.359375 138.703125 95.40625 138.9375 95.5 139.167969 C 95.59375 139.394531 95.726562 139.59375 95.902344 139.769531 C 96.078125 139.941406 96.277344 140.078125 96.503906 140.171875 C 96.734375 140.265625 96.96875 140.3125 97.214844 140.3125 C 97.460938 140.3125 97.699219 140.265625 97.925781 140.171875 C 98.15625 140.078125 98.355469 139.941406 98.53125 139.769531 C 98.703125 139.59375 98.835938 139.394531 98.933594 139.167969 C 99.027344 138.9375 99.074219 138.703125 99.074219 138.457031 L 99.074219 131.023438 L 108.363281 131.023438 L 108.363281 138.457031 C 108.363281 138.703125 108.410156 138.9375 108.503906 139.167969 C 108.597656 139.394531 108.730469 139.59375 108.90625 139.769531 C 109.078125 139.941406 109.28125 140.078125 109.507812 140.171875 C 109.734375 140.265625 109.972656 140.3125 110.21875 140.3125 Z M 99.074219 127.308594 L 99.074219 119.878906 C 99.074219 119.632812 99.121094 119.394531 99.214844 119.167969 C 99.308594 118.941406 99.445312 118.738281 99.617188 118.566406 C 99.792969 118.390625 99.992188 118.257812 100.21875 118.164062 C 100.449219 118.070312 100.683594 118.023438 100.929688 118.019531 L 106.503906 118.019531 C 106.75 118.023438 106.988281 118.070312 107.214844 118.164062 C 107.441406 118.257812 107.644531 118.390625 107.816406 118.566406 C 107.992188 118.738281 108.125 118.941406 108.21875 119.167969 C 108.3125 119.394531 108.363281 119.632812 108.363281 119.878906 L 108.363281 127.308594 Z M 99.074219 127.308594 " fill-opacity="1" fill-rule="nonzero"/><path fill="#000000" d="M 115.792969 116.164062 L 115.792969 138.457031 C 115.792969 138.703125 115.839844 138.9375 115.933594 139.167969 C 116.027344 139.394531 116.160156 139.59375 116.335938 139.769531 C 116.511719 139.941406 116.710938 140.078125 116.9375 140.171875 C 117.167969 140.265625 117.402344 140.3125 117.648438 140.3125 C 117.894531 140.3125 118.132812 140.265625 118.359375 140.171875 C 118.589844 140.078125 118.789062 139.941406 118.964844 139.769531 C 119.136719 139.59375 119.273438 139.394531 119.367188 139.167969 C 119.460938 138.9375 119.507812 138.703125 119.507812 138.457031 L 119.507812 116.164062 C 119.507812 115.917969 119.460938 115.679688 119.367188 115.453125 C 119.273438 115.226562 119.136719 115.023438 118.964844 114.851562 C 118.789062 114.675781 118.589844 114.542969 118.359375 114.449219 C 118.132812 114.351562 117.894531 114.304688 117.648438 114.304688 C 117.402344 114.304688 117.167969 114.351562 116.9375 114.449219 C 116.710938 114.542969 116.511719 114.675781 116.335938 114.851562 C 116.160156 115.023438 116.027344 115.226562 115.933594 115.453125 C 115.839844 115.679688 115.792969 115.917969 115.792969 116.164062 Z M 115.792969 116.164062 " fill-opacity="1" fill-rule="nonzero"/><path fill="#000000" d="M 139.941406 125.453125 L 139.941406 119.878906 C 139.941406 119.511719 139.90625 119.152344 139.832031 118.792969 C 139.761719 118.433594 139.65625 118.085938 139.515625 117.746094 C 139.375 117.410156 139.203125 117.089844 139 116.785156 C 138.796875 116.480469 138.566406 116.199219 138.308594 115.941406 C 138.046875 115.679688 137.765625 115.449219 137.464844 115.246094 C 137.160156 115.042969 136.839844 114.871094 136.5 114.730469 C 136.164062 114.589844 135.8125 114.484375 135.457031 114.414062 C 135.097656 114.34375 134.734375 114.304688 134.367188 114.304688 L 125.082031 114.304688 C 124.835938 114.304688 124.597656 114.351562 124.371094 114.449219 C 124.140625 114.542969 123.941406 114.675781 123.765625 114.851562 C 123.59375 115.023438 123.457031 115.226562 123.363281 115.453125 C 123.269531 115.679688 123.222656 115.917969 123.222656 116.164062 L 123.222656 138.457031 C 123.222656 138.703125 123.269531 138.9375 123.363281 139.167969 C 123.457031 139.394531 123.59375 139.59375 123.765625 139.769531 C 123.941406 139.941406 124.140625 140.078125 124.371094 140.171875 C 124.597656 140.265625 124.835938 140.3125 125.082031 140.3125 C 125.328125 140.3125 125.5625 140.265625 125.792969 140.171875 C 126.019531 140.078125 126.21875 139.941406 126.394531 139.769531 C 126.566406 139.59375 126.703125 139.394531 126.796875 139.167969 C 126.890625 138.9375 126.9375 138.703125 126.9375 138.457031 L 126.9375 131.023438 L 131.460938 131.023438 L 136.492188 139.410156 C 136.617188 139.621094 136.78125 139.800781 136.976562 139.949219 C 137.175781 140.09375 137.394531 140.199219 137.632812 140.257812 C 137.871094 140.316406 138.113281 140.328125 138.359375 140.292969 C 138.601562 140.257812 138.828125 140.175781 139.039062 140.046875 C 139.25 139.921875 139.429688 139.757812 139.578125 139.5625 C 139.722656 139.363281 139.828125 139.144531 139.886719 138.90625 C 139.945312 138.667969 139.957031 138.425781 139.921875 138.179688 C 139.886719 137.9375 139.804688 137.710938 139.675781 137.5 L 135.6875 130.851562 C 136.292969 130.703125 136.855469 130.460938 137.382812 130.125 C 137.90625 129.789062 138.359375 129.375 138.746094 128.886719 C 139.132812 128.394531 139.425781 127.855469 139.632812 127.269531 C 139.835938 126.679688 139.941406 126.074219 139.941406 125.453125 Z M 136.226562 125.453125 C 136.226562 125.699219 136.179688 125.933594 136.085938 126.164062 C 135.988281 126.390625 135.855469 126.589844 135.679688 126.765625 C 135.507812 126.9375 135.304688 127.074219 135.078125 127.167969 C 134.851562 127.261719 134.613281 127.308594 134.367188 127.308594 L 126.9375 127.308594 L 126.9375 118.019531 L 134.367188 118.019531 C 134.613281 118.023438 134.851562 118.070312 135.078125 118.164062 C 135.304688 118.257812 135.507812 118.390625 135.679688 118.566406 C 135.855469 118.738281 135.988281 118.941406 136.085938 119.167969 C 136.179688 119.394531 136.226562 119.632812 136.226562 119.878906 Z M 136.226562 125.453125 " fill-opacity="1" fill-rule="nonzero"/><g clip-path="url(#d02ce53aa6)"><path fill="#000000" d="M 147.371094 131.023438 C 147.617188 131.023438 147.855469 130.976562 148.082031 130.882812 C 148.308594 130.789062 148.511719 130.65625 148.6875 130.480469 C 148.859375 130.304688 148.992188 130.105469 149.089844 129.878906 C 149.183594 129.652344 149.230469 129.414062 149.230469 129.167969 L 149.230469 110.589844 C 149.230469 110.226562 149.191406 109.863281 149.121094 109.503906 C 149.050781 109.144531 148.945312 108.796875 148.804688 108.460938 C 148.664062 108.121094 148.492188 107.800781 148.289062 107.496094 C 148.085938 107.191406 147.855469 106.910156 147.59375 106.652344 C 147.335938 106.394531 147.054688 106.164062 146.75 105.960938 C 146.445312 105.753906 146.125 105.582031 145.789062 105.445312 C 145.449219 105.304688 145.101562 105.199219 144.742188 105.125 C 144.382812 105.054688 144.023438 105.019531 143.65625 105.019531 L 99.074219 105.019531 L 99.074219 96.914062 C 100.386719 96.601562 101.660156 96.179688 102.902344 95.65625 C 104.144531 95.128906 105.332031 94.503906 106.46875 93.78125 C 107.605469 93.054688 108.675781 92.242188 109.675781 91.335938 C 110.675781 90.433594 111.597656 89.453125 112.433594 88.398438 C 113.269531 87.339844 114.011719 86.21875 114.660156 85.039062 C 115.3125 83.855469 115.855469 82.628906 116.300781 81.355469 C 116.746094 80.085938 117.082031 78.78125 117.308594 77.453125 C 117.53125 76.125 117.648438 74.785156 117.648438 73.4375 C 117.648438 73.191406 117.601562 72.953125 117.507812 72.726562 C 117.414062 72.5 117.28125 72.300781 117.105469 72.125 C 116.929688 71.949219 116.730469 71.816406 116.503906 71.722656 C 116.277344 71.628906 116.039062 71.582031 115.792969 71.582031 C 115.546875 71.582031 115.308594 71.628906 115.082031 71.722656 C 114.855469 71.816406 114.652344 71.949219 114.480469 72.125 C 114.304688 72.300781 114.171875 72.5 114.074219 72.726562 C 113.980469 72.953125 113.933594 73.191406 113.933594 73.4375 C 113.933594 74.109375 113.902344 74.773438 113.835938 75.441406 C 113.769531 76.105469 113.671875 76.769531 113.542969 77.425781 C 113.410156 78.082031 113.25 78.730469 113.054688 79.371094 C 112.859375 80.011719 112.636719 80.640625 112.378906 81.257812 C 112.121094 81.875 111.835938 82.480469 111.523438 83.070312 C 111.207031 83.660156 110.863281 84.234375 110.492188 84.789062 C 110.117188 85.347656 109.722656 85.882812 109.296875 86.402344 C 108.871094 86.917969 108.421875 87.414062 107.949219 87.886719 C 107.476562 88.359375 106.980469 88.808594 106.464844 89.234375 C 105.945312 89.660156 105.410156 90.054688 104.851562 90.429688 C 104.296875 90.800781 103.722656 91.144531 103.132812 91.460938 C 102.542969 91.773438 101.9375 92.0625 101.320312 92.316406 C 100.703125 92.574219 100.074219 92.796875 99.433594 92.992188 C 98.792969 93.1875 98.144531 93.347656 97.488281 93.480469 C 96.832031 93.609375 96.167969 93.707031 95.503906 93.773438 C 94.835938 93.839844 94.167969 93.871094 93.5 93.871094 C 92.832031 93.871094 92.164062 93.839844 91.496094 93.773438 C 90.832031 93.707031 90.171875 93.609375 89.515625 93.480469 C 88.859375 93.347656 88.210938 93.1875 87.570312 92.992188 C 86.929688 92.796875 86.300781 92.574219 85.679688 92.316406 C 85.0625 92.0625 84.457031 91.773438 83.867188 91.460938 C 83.277344 91.144531 82.703125 90.800781 82.148438 90.429688 C 81.589844 90.054688 81.054688 89.660156 80.539062 89.234375 C 80.019531 88.808594 79.523438 88.359375 79.050781 87.886719 C 78.578125 87.414062 78.128906 86.917969 77.703125 86.402344 C 77.28125 85.882812 76.882812 85.347656 76.511719 84.789062 C 76.140625 84.234375 75.796875 83.660156 75.480469 83.070312 C 75.164062 82.480469 74.878906 81.875 74.621094 81.257812 C 74.367188 80.640625 74.140625 80.011719 73.945312 79.371094 C 73.753906 78.730469 73.589844 78.082031 73.460938 77.425781 C 73.328125 76.769531 73.230469 76.105469 73.164062 75.441406 C 73.097656 74.773438 73.066406 74.109375 73.066406 73.4375 C 73.066406 73.191406 73.019531 72.953125 72.925781 72.726562 C 72.832031 72.5 72.695312 72.300781 72.523438 72.125 C 72.347656 71.949219 72.148438 71.816406 71.921875 71.722656 C 71.691406 71.628906 71.457031 71.582031 71.210938 71.582031 C 70.960938 71.582031 70.726562 71.628906 70.5 71.722656 C 70.269531 71.816406 70.070312 71.949219 69.894531 72.125 C 69.722656 72.300781 69.585938 72.5 69.492188 72.726562 C 69.398438 72.953125 69.351562 73.191406 69.351562 73.4375 C 69.355469 74.785156 69.46875 76.125 69.695312 77.453125 C 69.921875 78.78125 70.257812 80.085938 70.699219 81.355469 C 71.144531 82.628906 71.691406 83.855469 72.339844 85.039062 C 72.988281 86.21875 73.730469 87.339844 74.570312 88.398438 C 75.40625 89.453125 76.324219 90.433594 77.324219 91.335938 C 78.324219 92.242188 79.394531 93.054688 80.53125 93.78125 C 81.667969 94.503906 82.855469 95.128906 84.097656 95.65625 C 85.339844 96.179688 86.617188 96.601562 87.929688 96.914062 L 87.929688 105.019531 L 43.34375 105.019531 C 42.980469 105.019531 42.617188 105.054688 42.257812 105.125 C 41.898438 105.199219 41.550781 105.304688 41.214844 105.445312 C 40.875 105.582031 40.554688 105.753906 40.25 105.960938 C 39.945312 106.164062 39.664062 106.394531 39.40625 106.652344 C 39.148438 106.910156 38.917969 107.191406 38.710938 107.496094 C 38.507812 107.800781 38.335938 108.121094 38.199219 108.460938 C 38.058594 108.796875 37.953125 109.144531 37.878906 109.503906 C 37.808594 109.863281 37.773438 110.226562 37.773438 110.589844 L 37.773438 144.027344 C 37.773438 144.394531 37.808594 144.757812 37.878906 145.113281 C 37.953125 145.472656 38.058594 145.820312 38.199219 146.160156 C 38.335938 146.496094 38.507812 146.820312 38.710938 147.121094 C 38.917969 147.425781 39.148438 147.707031 39.40625 147.96875 C 39.664062 148.226562 39.945312 148.457031 40.25 148.660156 C 40.554688 148.863281 40.875 149.035156 41.214844 149.175781 C 41.550781 149.316406 41.898438 149.421875 42.257812 149.492188 C 42.617188 149.566406 42.980469 149.601562 43.34375 149.601562 L 143.65625 149.601562 C 144.023438 149.601562 144.382812 149.566406 144.742188 149.492188 C 145.101562 149.421875 145.449219 149.316406 145.789062 149.175781 C 146.125 149.035156 146.445312 148.863281 146.75 148.660156 C 147.054688 148.457031 147.335938 148.226562 147.59375 147.96875 C 147.855469 147.707031 148.085938 147.425781 148.289062 147.121094 C 148.492188 146.820312 148.664062 146.496094 148.804688 146.160156 C 148.945312 145.820312 149.050781 145.472656 149.121094 145.113281 C 149.191406 144.757812 149.230469 144.394531 149.230469 144.027344 L 149.230469 136.597656 C 149.230469 136.351562 149.183594 136.113281 149.089844 135.886719 C 148.992188 135.660156 148.859375 135.457031 148.683594 135.285156 C 148.511719 135.109375 148.308594 134.976562 148.082031 134.882812 C 147.855469 134.789062 147.617188 134.738281 147.371094 134.738281 C 147.125 134.738281 146.886719 134.789062 146.660156 134.882812 C 146.433594 134.976562 146.234375 135.109375 146.058594 135.285156 C 145.882812 135.457031 145.75 135.660156 145.65625 135.886719 C 145.5625 136.113281 145.515625 136.351562 145.515625 136.597656 L 145.515625 144.027344 C 145.515625 144.273438 145.464844 144.511719 145.371094 144.738281 C 145.277344 144.964844 145.144531 145.167969 144.96875 145.339844 C 144.796875 145.515625 144.59375 145.648438 144.367188 145.742188 C 144.140625 145.839844 143.902344 145.886719 143.65625 145.886719 L 43.34375 145.886719 C 43.097656 145.886719 42.863281 145.839844 42.632812 145.742188 C 42.40625 145.648438 42.207031 145.515625 42.03125 145.339844 C 41.859375 145.167969 41.722656 144.964844 41.628906 144.738281 C 41.535156 144.511719 41.488281 144.273438 41.488281 144.027344 L 41.488281 110.589844 C 41.488281 110.34375 41.535156 110.109375 41.628906 109.878906 C 41.722656 109.652344 41.859375 109.453125 42.03125 109.277344 C 42.207031 109.105469 42.40625 108.96875 42.632812 108.875 C 42.863281 108.78125 43.097656 108.734375 43.34375 108.734375 L 143.65625 108.734375 C 143.902344 108.734375 144.140625 108.78125 144.367188 108.875 C 144.59375 108.96875 144.796875 109.105469 144.96875 109.277344 C 145.144531 109.453125 145.277344 109.652344 145.371094 109.878906 C 145.464844 110.109375 145.515625 110.34375 145.515625 110.589844 L 145.515625 129.167969 C 145.515625 129.414062 145.5625 129.652344 145.65625 129.878906 C 145.75 130.105469 145.882812 130.304688 146.058594 130.480469 C 146.234375 130.65625 146.433594 130.789062 146.660156 130.882812 C 146.886719 130.976562 147.125 131.023438 147.371094 131.023438 Z M 91.644531 97.492188 C 92.257812 97.539062 92.875 97.585938 93.5 97.585938 C 94.128906 97.585938 94.742188 97.539062 95.359375 97.492188 L 95.359375 105.019531 L 91.644531 105.019531 Z M 91.644531 97.492188 " fill-opacity="1" fill-rule="nonzero"/></g><path fill="#000000" d="M 58.296875 82.632812 C 58.671875 82.632812 59.019531 82.53125 59.328125 82.320312 C 59.640625 82.113281 59.871094 81.835938 60.015625 81.488281 C 60.15625 81.140625 60.191406 80.78125 60.121094 80.414062 C 60.046875 80.046875 59.878906 79.730469 59.613281 79.464844 C 59.09375 78.945312 58.632812 78.382812 58.226562 77.773438 C 57.820312 77.164062 57.476562 76.523438 57.195312 75.847656 C 56.917969 75.171875 56.703125 74.472656 56.5625 73.753906 C 56.417969 73.039062 56.347656 72.3125 56.347656 71.582031 C 56.347656 70.847656 56.417969 70.125 56.5625 69.40625 C 56.703125 68.6875 56.917969 67.992188 57.195312 67.316406 C 57.476562 66.640625 57.820312 65.996094 58.226562 65.386719 C 58.632812 64.777344 59.09375 64.214844 59.613281 63.699219 C 59.785156 63.523438 59.917969 63.324219 60.011719 63.09375 C 60.105469 62.867188 60.152344 62.632812 60.148438 62.386719 C 60.148438 62.140625 60.101562 61.90625 60.007812 61.679688 C 59.914062 61.453125 59.777344 61.25 59.605469 61.078125 C 59.429688 60.902344 59.230469 60.769531 59.003906 60.675781 C 58.777344 60.582031 58.542969 60.535156 58.296875 60.535156 C 58.050781 60.53125 57.8125 60.578125 57.585938 60.671875 C 57.359375 60.765625 57.160156 60.898438 56.984375 61.070312 C 56.292969 61.761719 55.679688 62.511719 55.136719 63.324219 C 54.59375 64.136719 54.136719 64.992188 53.765625 65.894531 C 53.390625 66.796875 53.109375 67.722656 52.917969 68.679688 C 52.726562 69.636719 52.632812 70.605469 52.632812 71.582031 C 52.632812 72.554688 52.726562 73.523438 52.917969 74.480469 C 53.109375 75.4375 53.390625 76.367188 53.765625 77.269531 C 54.136719 78.167969 54.59375 79.027344 55.136719 79.835938 C 55.679688 80.648438 56.292969 81.398438 56.984375 82.089844 C 57.347656 82.453125 57.785156 82.632812 58.296875 82.632812 Z M 58.296875 82.632812 " fill-opacity="1" fill-rule="nonzero"/><path fill="#000000" d="M 50.421875 90.511719 C 50.796875 90.511719 51.140625 90.40625 51.453125 90.199219 C 51.765625 89.988281 51.996094 89.710938 52.136719 89.363281 C 52.28125 89.015625 52.316406 88.660156 52.242188 88.289062 C 52.171875 87.921875 52 87.605469 51.734375 87.339844 C 51.21875 86.824219 50.730469 86.285156 50.265625 85.71875 C 49.800781 85.15625 49.367188 84.570312 48.960938 83.964844 C 48.554688 83.355469 48.179688 82.730469 47.835938 82.085938 C 47.492188 81.445312 47.179688 80.785156 46.898438 80.109375 C 46.621094 79.4375 46.375 78.75 46.164062 78.050781 C 45.949219 77.351562 45.773438 76.644531 45.632812 75.929688 C 45.488281 75.214844 45.382812 74.492188 45.308594 73.765625 C 45.238281 73.039062 45.203125 72.3125 45.203125 71.582031 C 45.203125 70.851562 45.238281 70.121094 45.308594 69.394531 C 45.382812 68.667969 45.488281 67.949219 45.632812 67.230469 C 45.773438 66.515625 45.949219 65.808594 46.164062 65.109375 C 46.375 64.410156 46.621094 63.726562 46.898438 63.050781 C 47.179688 62.375 47.492188 61.71875 47.835938 61.074219 C 48.179688 60.429688 48.554688 59.804688 48.960938 59.199219 C 49.367188 58.589844 49.800781 58.003906 50.265625 57.441406 C 50.730469 56.878906 51.21875 56.335938 51.734375 55.820312 C 51.910156 55.648438 52.042969 55.445312 52.136719 55.21875 C 52.234375 54.992188 52.28125 54.753906 52.28125 54.507812 C 52.28125 54.261719 52.234375 54.023438 52.136719 53.796875 C 52.042969 53.570312 51.910156 53.367188 51.734375 53.195312 C 51.5625 53.019531 51.359375 52.886719 51.132812 52.792969 C 50.90625 52.699219 50.667969 52.652344 50.421875 52.652344 C 50.175781 52.652344 49.9375 52.699219 49.710938 52.792969 C 49.484375 52.886719 49.28125 53.019531 49.109375 53.195312 C 48.507812 53.796875 47.933594 54.425781 47.394531 55.085938 C 46.851562 55.742188 46.347656 56.425781 45.871094 57.132812 C 45.398438 57.84375 44.960938 58.570312 44.558594 59.324219 C 44.15625 60.074219 43.792969 60.84375 43.46875 61.628906 C 43.140625 62.414062 42.855469 63.214844 42.609375 64.03125 C 42.359375 64.847656 42.152344 65.671875 41.988281 66.507812 C 41.820312 67.34375 41.695312 68.183594 41.613281 69.03125 C 41.527344 69.878906 41.488281 70.730469 41.488281 71.582031 C 41.488281 72.433594 41.527344 73.28125 41.613281 74.128906 C 41.695312 74.976562 41.820312 75.820312 41.988281 76.652344 C 42.152344 77.488281 42.359375 78.316406 42.609375 79.128906 C 42.855469 79.945312 43.140625 80.746094 43.46875 81.53125 C 43.792969 82.320312 44.15625 83.085938 44.558594 83.839844 C 44.960938 84.589844 45.398438 85.320312 45.871094 86.027344 C 46.347656 86.734375 46.851562 87.417969 47.394531 88.078125 C 47.933594 88.734375 48.507812 89.363281 49.109375 89.964844 C 49.472656 90.328125 49.910156 90.511719 50.421875 90.511719 Z M 50.421875 90.511719 " fill-opacity="1" fill-rule="nonzero"/><path fill="#000000" d="M 127.390625 82.089844 C 127.5625 82.265625 127.765625 82.398438 127.992188 82.492188 C 128.21875 82.585938 128.457031 82.632812 128.703125 82.632812 C 128.949219 82.632812 129.1875 82.585938 129.414062 82.492188 C 129.640625 82.398438 129.84375 82.265625 130.015625 82.089844 C 130.707031 81.398438 131.324219 80.648438 131.863281 79.835938 C 132.40625 79.027344 132.863281 78.167969 133.238281 77.269531 C 133.609375 76.367188 133.894531 75.4375 134.082031 74.480469 C 134.273438 73.523438 134.367188 72.554688 134.367188 71.582031 C 134.367188 70.605469 134.273438 69.636719 134.082031 68.679688 C 133.894531 67.722656 133.609375 66.796875 133.238281 65.894531 C 132.863281 64.992188 132.40625 64.136719 131.863281 63.324219 C 131.324219 62.511719 130.707031 61.761719 130.015625 61.070312 C 129.84375 60.898438 129.640625 60.765625 129.414062 60.671875 C 129.1875 60.578125 128.953125 60.53125 128.707031 60.535156 C 128.460938 60.535156 128.222656 60.582031 127.996094 60.675781 C 127.769531 60.769531 127.570312 60.902344 127.394531 61.078125 C 127.222656 61.25 127.089844 61.449219 126.992188 61.679688 C 126.898438 61.90625 126.851562 62.140625 126.851562 62.386719 C 126.851562 62.632812 126.898438 62.867188 126.988281 63.09375 C 127.082031 63.324219 127.214844 63.523438 127.390625 63.699219 C 127.90625 64.214844 128.367188 64.777344 128.773438 65.386719 C 129.179688 65.996094 129.523438 66.640625 129.804688 67.316406 C 130.085938 67.992188 130.296875 68.6875 130.4375 69.40625 C 130.582031 70.125 130.652344 70.847656 130.652344 71.582031 C 130.652344 72.3125 130.582031 73.039062 130.4375 73.753906 C 130.296875 74.472656 130.085938 75.171875 129.804688 75.847656 C 129.523438 76.523438 129.179688 77.164062 128.773438 77.773438 C 128.367188 78.382812 127.90625 78.945312 127.390625 79.460938 C 127.214844 79.636719 127.082031 79.839844 126.988281 80.066406 C 126.890625 80.292969 126.84375 80.53125 126.84375 80.777344 C 126.84375 81.023438 126.894531 81.257812 126.988281 81.488281 C 127.082031 81.714844 127.214844 81.914062 127.390625 82.089844 Z M 127.390625 82.089844 " fill-opacity="1" fill-rule="nonzero"/><path fill="#000000" d="M 135.265625 89.964844 C 135.441406 90.140625 135.640625 90.273438 135.867188 90.371094 C 136.09375 90.464844 136.332031 90.511719 136.578125 90.511719 C 136.824219 90.511719 137.0625 90.464844 137.289062 90.371094 C 137.515625 90.273438 137.71875 90.140625 137.890625 89.964844 C 138.496094 89.363281 139.066406 88.734375 139.605469 88.078125 C 140.148438 87.417969 140.65625 86.734375 141.128906 86.027344 C 141.601562 85.320312 142.039062 84.589844 142.441406 83.839844 C 142.84375 83.085938 143.207031 82.320312 143.535156 81.53125 C 143.859375 80.746094 144.144531 79.945312 144.394531 79.128906 C 144.640625 78.316406 144.847656 77.488281 145.015625 76.652344 C 145.179688 75.820312 145.304688 74.976562 145.390625 74.128906 C 145.472656 73.28125 145.515625 72.433594 145.515625 71.582031 C 145.515625 70.730469 145.472656 69.878906 145.390625 69.03125 C 145.304688 68.183594 145.179688 67.34375 145.015625 66.507812 C 144.847656 65.671875 144.640625 64.847656 144.394531 64.03125 C 144.144531 63.214844 143.859375 62.414062 143.535156 61.628906 C 143.207031 60.84375 142.84375 60.074219 142.441406 59.324219 C 142.039062 58.570312 141.601562 57.84375 141.128906 57.132812 C 140.65625 56.425781 140.148438 55.742188 139.605469 55.085938 C 139.066406 54.425781 138.496094 53.796875 137.890625 53.195312 C 137.71875 53.019531 137.515625 52.886719 137.289062 52.792969 C 137.0625 52.699219 136.824219 52.652344 136.578125 52.652344 C 136.332031 52.652344 136.097656 52.699219 135.867188 52.792969 C 135.640625 52.886719 135.441406 53.023438 135.265625 53.195312 C 135.09375 53.371094 134.957031 53.570312 134.863281 53.796875 C 134.769531 54.027344 134.722656 54.261719 134.722656 54.507812 C 134.722656 54.753906 134.769531 54.992188 134.863281 55.21875 C 134.957031 55.445312 135.089844 55.648438 135.265625 55.820312 C 135.78125 56.335938 136.273438 56.878906 136.734375 57.441406 C 137.199219 58.003906 137.632812 58.589844 138.039062 59.199219 C 138.445312 59.804688 138.820312 60.429688 139.164062 61.074219 C 139.507812 61.71875 139.820312 62.375 140.101562 63.050781 C 140.378906 63.726562 140.625 64.410156 140.839844 65.109375 C 141.050781 65.808594 141.226562 66.515625 141.371094 67.230469 C 141.511719 67.949219 141.621094 68.667969 141.691406 69.394531 C 141.761719 70.121094 141.800781 70.851562 141.800781 71.582031 C 141.800781 72.3125 141.761719 73.039062 141.691406 73.765625 C 141.621094 74.492188 141.511719 75.214844 141.371094 75.929688 C 141.226562 76.644531 141.050781 77.351562 140.839844 78.050781 C 140.625 78.75 140.378906 79.4375 140.101562 80.109375 C 139.820312 80.785156 139.507812 81.445312 139.164062 82.085938 C 138.820312 82.730469 138.445312 83.355469 138.039062 83.964844 C 137.632812 84.570312 137.199219 85.15625 136.734375 85.71875 C 136.273438 86.285156 135.78125 86.824219 135.265625 87.339844 C 135.089844 87.515625 134.957031 87.714844 134.863281 87.941406 C 134.769531 88.167969 134.722656 88.40625 134.722656 88.652344 C 134.722656 88.898438 134.769531 89.136719 134.863281 89.363281 C 134.957031 89.589844 135.089844 89.792969 135.265625 89.964844 Z M 135.265625 89.964844 " fill-opacity="1" fill-rule="nonzero"/><path fill="#000000" d="M 93.5 90.15625 C 94.046875 90.15625 94.59375 90.128906 95.140625 90.074219 C 95.683594 90.019531 96.222656 89.941406 96.761719 89.832031 C 97.296875 89.726562 97.828125 89.59375 98.351562 89.433594 C 98.875 89.273438 99.390625 89.089844 99.894531 88.878906 C 100.402344 88.667969 100.894531 88.433594 101.378906 88.175781 C 101.859375 87.917969 102.328125 87.636719 102.785156 87.332031 C 103.238281 87.027344 103.679688 86.703125 104.101562 86.355469 C 104.523438 86.007812 104.929688 85.640625 105.316406 85.253906 C 105.703125 84.867188 106.070312 84.460938 106.417969 84.039062 C 106.765625 83.617188 107.089844 83.175781 107.394531 82.722656 C 107.699219 82.265625 107.980469 81.796875 108.238281 81.316406 C 108.496094 80.832031 108.730469 80.339844 108.941406 79.832031 C 109.152344 79.328125 109.335938 78.8125 109.496094 78.289062 C 109.65625 77.765625 109.789062 77.234375 109.894531 76.699219 C 110.003906 76.160156 110.082031 75.621094 110.136719 75.078125 C 110.191406 74.53125 110.21875 73.984375 110.21875 73.4375 L 110.21875 54.863281 C 110.222656 53.386719 110.03125 51.9375 109.648438 50.515625 C 109.269531 49.089844 108.707031 47.742188 107.96875 46.46875 C 107.230469 45.191406 106.335938 44.035156 105.289062 42.996094 C 104.246094 41.957031 103.082031 41.070312 101.800781 40.339844 C 100.523438 39.609375 99.167969 39.058594 97.742188 38.6875 C 96.316406 38.3125 94.867188 38.132812 93.394531 38.144531 C 91.917969 38.15625 90.472656 38.359375 89.050781 38.753906 C 87.632812 39.148438 86.289062 39.71875 85.019531 40.472656 C 84.804688 40.597656 84.625 40.757812 84.476562 40.953125 C 84.328125 41.152344 84.222656 41.367188 84.160156 41.605469 C 84.101562 41.847656 84.085938 42.085938 84.121094 42.332031 C 84.15625 42.574219 84.234375 42.804688 84.359375 43.015625 C 84.484375 43.230469 84.648438 43.410156 84.84375 43.558594 C 85.042969 43.707031 85.257812 43.808594 85.5 43.871094 C 85.738281 43.933594 85.980469 43.945312 86.222656 43.910156 C 86.46875 43.875 86.695312 43.796875 86.90625 43.671875 C 87.363281 43.398438 87.835938 43.15625 88.324219 42.945312 C 88.808594 42.730469 89.308594 42.550781 89.816406 42.398438 C 90.328125 42.246094 90.84375 42.125 91.367188 42.039062 C 91.890625 41.949219 92.417969 41.894531 92.949219 41.871094 C 93.480469 41.847656 94.011719 41.855469 94.542969 41.898438 C 95.070312 41.941406 95.597656 42.015625 96.117188 42.121094 C 96.636719 42.226562 97.148438 42.367188 97.652344 42.535156 C 98.15625 42.707031 98.648438 42.90625 99.128906 43.136719 C 99.609375 43.363281 100.070312 43.625 100.519531 43.910156 C 100.964844 44.195312 101.394531 44.511719 101.800781 44.851562 C 102.210938 45.191406 102.597656 45.554688 102.960938 45.941406 C 103.324219 46.328125 103.664062 46.734375 103.980469 47.164062 C 104.292969 47.59375 104.578125 48.039062 104.839844 48.503906 C 105.097656 48.96875 105.328125 49.445312 105.527344 49.9375 C 105.726562 50.429688 105.898438 50.933594 106.035156 51.445312 C 106.175781 51.957031 106.28125 52.476562 106.355469 53.003906 L 99.074219 53.003906 C 98.828125 53.003906 98.589844 53.050781 98.363281 53.144531 C 98.136719 53.238281 97.933594 53.375 97.761719 53.546875 C 97.585938 53.722656 97.453125 53.921875 97.355469 54.152344 C 97.261719 54.378906 97.214844 54.617188 97.214844 54.863281 C 97.214844 55.109375 97.261719 55.34375 97.355469 55.574219 C 97.453125 55.800781 97.585938 56 97.761719 56.175781 C 97.933594 56.351562 98.136719 56.484375 98.363281 56.578125 C 98.589844 56.671875 98.828125 56.71875 99.074219 56.71875 L 106.503906 56.71875 L 106.503906 62.292969 L 99.074219 62.292969 C 98.828125 62.292969 98.589844 62.339844 98.363281 62.433594 C 98.136719 62.527344 97.933594 62.664062 97.761719 62.835938 C 97.585938 63.011719 97.453125 63.210938 97.355469 63.4375 C 97.261719 63.667969 97.214844 63.902344 97.214844 64.148438 C 97.214844 64.394531 97.261719 64.632812 97.355469 64.859375 C 97.453125 65.089844 97.585938 65.289062 97.761719 65.464844 C 97.933594 65.636719 98.136719 65.773438 98.363281 65.867188 C 98.589844 65.960938 98.828125 66.007812 99.074219 66.007812 L 106.503906 66.007812 L 106.503906 71.582031 L 80.496094 71.582031 L 80.496094 66.007812 L 87.929688 66.007812 C 88.175781 66.007812 88.410156 65.960938 88.636719 65.867188 C 88.867188 65.773438 89.066406 65.636719 89.242188 65.464844 C 89.414062 65.289062 89.550781 65.089844 89.644531 64.859375 C 89.738281 64.632812 89.785156 64.394531 89.785156 64.148438 C 89.785156 63.902344 89.738281 63.667969 89.644531 63.4375 C 89.550781 63.210938 89.414062 63.011719 89.242188 62.835938 C 89.066406 62.664062 88.867188 62.527344 88.636719 62.433594 C 88.410156 62.339844 88.175781 62.292969 87.929688 62.292969 L 80.496094 62.292969 L 80.496094 56.71875 L 87.929688 56.71875 C 88.175781 56.71875 88.410156 56.671875 88.636719 56.578125 C 88.867188 56.484375 89.066406 56.351562 89.242188 56.175781 C 89.414062 56 89.550781 55.800781 89.644531 55.574219 C 89.738281 55.34375 89.785156 55.109375 89.785156 54.863281 C 89.785156 54.617188 89.738281 54.378906 89.644531 54.152344 C 89.550781 53.921875 89.414062 53.722656 89.242188 53.546875 C 89.066406 53.375 88.867188 53.238281 88.636719 53.144531 C 88.410156 53.050781 88.175781 53.003906 87.929688 53.003906 L 80.640625 53.003906 C 80.886719 51.316406 81.441406 49.738281 82.308594 48.269531 C 82.4375 48.058594 82.519531 47.828125 82.554688 47.582031 C 82.59375 47.339844 82.582031 47.097656 82.519531 46.855469 C 82.460938 46.613281 82.355469 46.394531 82.207031 46.195312 C 82.058594 46 81.875 45.835938 81.664062 45.710938 C 81.449219 45.585938 81.222656 45.503906 80.976562 45.46875 C 80.730469 45.433594 80.488281 45.449219 80.246094 45.511719 C 80.007812 45.574219 79.789062 45.683594 79.59375 45.832031 C 79.394531 45.980469 79.234375 46.164062 79.109375 46.378906 C 77.5625 48.996094 76.785156 51.824219 76.78125 54.863281 L 76.78125 73.4375 C 76.78125 73.984375 76.808594 74.53125 76.863281 75.078125 C 76.917969 75.621094 77 76.160156 77.105469 76.699219 C 77.214844 77.234375 77.347656 77.765625 77.507812 78.289062 C 77.664062 78.8125 77.851562 79.328125 78.058594 79.832031 C 78.269531 80.339844 78.503906 80.832031 78.761719 81.316406 C 79.019531 81.796875 79.300781 82.265625 79.605469 82.722656 C 79.910156 83.175781 80.234375 83.617188 80.582031 84.039062 C 80.929688 84.460938 81.296875 84.867188 81.683594 85.253906 C 82.070312 85.640625 82.476562 86.007812 82.898438 86.355469 C 83.324219 86.703125 83.761719 87.027344 84.214844 87.332031 C 84.671875 87.636719 85.140625 87.917969 85.625 88.175781 C 86.105469 88.433594 86.601562 88.667969 87.105469 88.878906 C 87.609375 89.089844 88.125 89.273438 88.648438 89.433594 C 89.171875 89.59375 89.703125 89.726562 90.242188 89.832031 C 90.777344 89.941406 91.316406 90.019531 91.863281 90.074219 C 92.40625 90.128906 92.953125 90.15625 93.5 90.15625 Z M 93.5 86.441406 C 92.726562 86.441406 91.957031 86.371094 91.195312 86.230469 C 90.433594 86.09375 89.6875 85.886719 88.964844 85.617188 C 88.238281 85.34375 87.542969 85.011719 86.875 84.617188 C 86.210938 84.21875 85.585938 83.769531 85 83.261719 C 84.414062 82.753906 83.878906 82.199219 83.390625 81.59375 C 82.90625 80.992188 82.476562 80.351562 82.105469 79.671875 C 81.734375 78.992188 81.425781 78.28125 81.179688 77.546875 C 80.933594 76.8125 80.757812 76.0625 80.644531 75.296875 L 106.355469 75.296875 C 106.246094 76.0625 106.066406 76.8125 105.820312 77.546875 C 105.574219 78.28125 105.265625 78.992188 104.894531 79.671875 C 104.523438 80.351562 104.09375 80.992188 103.609375 81.59375 C 103.125 82.199219 102.585938 82.753906 102.003906 83.261719 C 101.417969 83.769531 100.792969 84.21875 100.125 84.617188 C 99.460938 85.011719 98.761719 85.34375 98.039062 85.617188 C 97.3125 85.886719 96.566406 86.09375 95.804688 86.230469 C 95.042969 86.371094 94.273438 86.441406 93.5 86.441406 Z M 93.5 86.441406 " fill-opacity="1" fill-rule="nonzero"/></svg>