<svg xmlns="http://www.w3.org/2000/svg" xmlns:xlink="http://www.w3.org/1999/xlink" width="250" zoomAndPan="magnify" viewBox="0 0 187.5 187.499992" height="250" preserveAspectRatio="xMidYMid meet" version="1.0"><defs><clipPath id="54b529d377"><path d="M 0 0 L 187 0 L 187 187 L 0 187 Z M 0 0 " clip-rule="nonzero"/></clipPath><clipPath id="39fb457397"><path d="M 93.5 0 C 41.863281 0 0 41.863281 0 93.5 C 0 145.140625 41.863281 187 93.5 187 C 145.140625 187 187 145.140625 187 93.5 C 187 41.863281 145.140625 0 93.5 0 Z M 93.5 0 " clip-rule="nonzero"/></clipPath><clipPath id="47f30eaf55"><path d="M 54.324219 53 L 132.867188 53 L 132.867188 161 L 54.324219 161 Z M 54.324219 53 " clip-rule="nonzero"/></clipPath></defs><g clip-path="url(#54b529d377)"><g clip-path="url(#39fb457397)"><path fill="#ffffff" d="M 0 0 L 187 0 L 187 187 L 0 187 Z M 0 0 " fill-opacity="1" fill-rule="nonzero"/><path stroke-linecap="butt" transform="matrix(0.748005, 0, 0, 0.748005, 0.000004, 0)" fill="none" stroke-linejoin="miter" d="M 124.999108 0 C 55.966551 0 -0.00000534756 55.966557 -0.00000534756 124.999114 C -0.00000534756 194.036893 55.966551 249.998227 124.999108 249.998227 C 194.036887 249.998227 249.998222 194.036893 249.998222 124.999114 C 249.998222 55.966557 194.036887 0 124.999108 0 Z M 124.999108 0 " stroke="#000000" stroke-width="8" stroke-opacity="1" stroke-miterlimit="4"/></g></g><g clip-path="url(#47f30eaf55)"><path fill="#000000" d="M 67.566406 143.203125 C 68.195312 140.109375 68.835938 137.015625 68.695312 133.859375 C 65.347656 141.222656 61.8125 148.503906 58.117188 155.710938 C 61.273438 151.542969 64.40625 147.363281 67.566406 143.203125 Z M 68.867188 141.492188 C 70.101562 139.867188 71.347656 138.246094 72.59375 136.632812 C 71.65625 135.492188 70.699219 134.371094 69.605469 133.382812 C 69.769531 136.121094 69.382812 138.8125 68.867188 141.492188 Z M 75.984375 124.25 C 75.382812 123.316406 74.746094 122.398438 74.082031 121.492188 C 73.023438 124.042969 71.945312 126.574219 70.832031 129.09375 C 72.566406 127.488281 74.320312 125.90625 75.984375 124.25 Z M 73.191406 135.867188 C 74.746094 133.847656 76.324219 131.851562 77.917969 129.867188 C 75.253906 130.417969 72.621094 131.085938 70.035156 132.003906 C 69.84375 132.070312 69.671875 132.074219 69.515625 132.03125 C 69.511719 132.039062 69.503906 132.046875 69.5 132.0625 C 70.886719 133.167969 72.054688 134.496094 73.191406 135.867188 Z M 78.207031 127.871094 C 77.664062 126.921875 77.105469 125.980469 76.511719 125.054688 C 75.011719 126.539062 73.445312 127.96875 71.878906 129.417969 C 73.964844 128.792969 76.082031 128.292969 78.207031 127.871094 Z M 81.398438 117.839844 C 79.351562 118.394531 77.304688 118.9375 75.253906 119.453125 C 75.222656 119.480469 75.195312 119.511719 75.167969 119.546875 C 75.132812 119.585938 75.09375 119.601562 75.058594 119.625 C 75.851562 120.683594 76.605469 121.769531 77.324219 122.875 C 78.804688 121.308594 80.183594 119.652344 81.398438 117.839844 Z M 82.289062 109.625 C 82.617188 109.300781 82.949219 109 83.277344 108.699219 C 82.128906 108.101562 80.988281 107.492188 79.855469 106.863281 C 79.523438 107.769531 79.1875 108.667969 78.847656 109.566406 C 77.835938 112.238281 76.777344 114.894531 75.703125 117.539062 C 77.960938 114.941406 79.882812 112.078125 82.289062 109.625 Z M 85.710938 120.5 C 84.683594 119.589844 83.621094 118.714844 82.449219 117.984375 C 81.113281 120.050781 79.539062 121.914062 77.863281 123.675781 C 78.617188 124.859375 79.324219 126.0625 80.011719 127.273438 C 81.878906 124.992188 83.773438 122.730469 85.710938 120.5 Z M 86.492188 101.523438 C 85.152344 100.859375 83.804688 100.226562 82.363281 99.808594 C 81.730469 101.65625 81.085938 103.488281 80.417969 105.324219 C 82.554688 104.40625 84.597656 103.070312 86.492188 101.523438 Z M 84.066406 108.035156 C 85.9375 106.503906 87.980469 105.277344 90.039062 103.96875 C 86.988281 104.722656 83.945312 105.460938 80.945312 106.378906 C 81.980469 106.941406 83.015625 107.496094 84.066406 108.035156 Z M 84.039062 135.171875 C 86.4375 132.566406 88.820312 129.949219 91.566406 127.710938 C 88.078125 128.226562 84.574219 128.667969 81.105469 129.269531 C 82.140625 131.203125 83.113281 133.171875 84.039062 135.171875 Z M 88.5 91.144531 C 87.6875 90.265625 86.867188 89.382812 85.9375 88.625 C 85.183594 91.160156 84.394531 93.683594 83.574219 96.1875 C 85.328125 94.613281 86.988281 92.941406 88.5 91.144531 Z M 92.351562 125.679688 C 90.382812 124.671875 88.742188 123.234375 87.121094 121.765625 C 85.59375 123.523438 84.089844 125.308594 82.605469 127.105469 C 85.84375 126.589844 89.105469 126.179688 92.351562 125.679688 Z M 89.734375 103.066406 C 88.945312 102.730469 88.175781 102.355469 87.410156 101.976562 C 86.277344 102.921875 85.097656 103.792969 83.867188 104.550781 C 85.8125 104.023438 87.777344 103.550781 89.734375 103.066406 Z M 89.085938 84.308594 C 88.539062 84.1875 87.992188 84.089844 87.4375 84.003906 C 87.375 84.039062 87.3125 84.066406 87.25 84.097656 C 87.066406 84.75 86.878906 85.402344 86.695312 86.058594 C 87.503906 85.492188 88.296875 84.910156 89.085938 84.308594 Z M 86.328125 119.789062 C 87.703125 118.214844 89.105469 116.65625 90.527344 115.109375 C 88.101562 115.898438 85.660156 116.640625 83.207031 117.339844 C 84.320312 118.066406 85.335938 118.914062 86.328125 119.789062 Z M 88.03125 100.191406 C 89.507812 98.832031 90.871094 97.382812 92.082031 95.9375 C 89.535156 96.636719 87.039062 97.507812 84.644531 98.601562 C 85.792969 99.066406 86.910156 99.636719 88.03125 100.191406 Z M 91.671875 94.085938 C 90.742188 93.445312 89.933594 92.660156 89.152344 91.847656 C 87.753906 93.503906 86.226562 95.0625 84.609375 96.53125 C 86.898438 95.546875 89.269531 94.746094 91.671875 94.085938 Z M 89.894531 77.464844 C 89.65625 77.246094 89.414062 77.023438 89.160156 76.808594 C 88.96875 77.589844 88.773438 78.371094 88.578125 79.152344 C 89.007812 78.582031 89.445312 78.023438 89.894531 77.464844 Z M 89.097656 90.4375 C 90.316406 88.917969 91.421875 87.3125 92.386719 85.613281 C 90.425781 86.324219 88.472656 87.058594 86.597656 87.949219 C 87.5 88.703125 88.296875 89.566406 89.097656 90.4375 Z M 87.757812 143.640625 C 89.324219 138.617188 91.078125 133.664062 92.097656 128.503906 C 89.320312 130.792969 86.90625 133.464844 84.472656 136.109375 C 85.609375 138.59375 86.691406 141.113281 87.757812 143.640625 Z M 91.460938 84.945312 C 91.0625 84.820312 90.660156 84.703125 90.261719 84.597656 C 89.523438 85.167969 88.773438 85.730469 88.019531 86.28125 C 89.148438 85.8125 90.304688 85.371094 91.460938 84.945312 Z M 90.050781 83.5625 C 90.738281 83.023438 91.410156 82.480469 92.082031 81.929688 C 91.007812 82.351562 89.957031 82.8125 88.90625 83.308594 C 89.289062 83.382812 89.667969 83.46875 90.050781 83.5625 Z M 91.007812 68.574219 C 91.40625 68.582031 91.859375 68.59375 92.324219 68.582031 C 92.292969 65.976562 92.25 63.363281 92.203125 60.742188 C 91.847656 63.363281 91.503906 65.980469 91.007812 68.574219 Z M 92.324219 79.769531 C 92.324219 79.746094 92.324219 79.734375 92.324219 79.71875 C 91.6875 79.234375 91.117188 78.6875 90.527344 78.121094 C 89.601562 79.257812 88.777344 80.4375 87.933594 81.636719 C 89.375 80.960938 90.460938 80.316406 92.324219 79.769531 Z M 91.855469 113.691406 C 92.019531 113.511719 92.1875 113.335938 92.351562 113.15625 C 89.605469 111.867188 86.886719 110.546875 84.195312 109.164062 C 83.519531 109.75 82.871094 110.371094 82.261719 111.058594 C 80.246094 113.378906 78.441406 115.863281 76.421875 118.171875 C 81.613281 116.851562 86.773438 115.382812 91.855469 113.691406 Z M 92.375 73.007812 C 92.363281 71.847656 92.351562 70.683594 92.335938 69.527344 C 91.726562 69.535156 91.0625 69.519531 90.824219 69.515625 C 90.8125 69.566406 90.808594 69.613281 90.792969 69.667969 C 90.53125 70.875 90.265625 72.089844 89.996094 73.296875 C 90.785156 73.191406 91.582031 73.085938 92.375 73.007812 Z M 92.394531 74.601562 C 92.386719 74.382812 92.386719 74.167969 92.386719 73.949219 C 91.511719 74.046875 90.636719 74.15625 89.761719 74.285156 C 89.644531 74.785156 89.53125 75.28125 89.410156 75.785156 C 89.785156 76.09375 90.144531 76.414062 90.492188 76.75 C 91.113281 76.023438 91.738281 75.304688 92.394531 74.601562 Z M 92.441406 78.515625 C 92.425781 77.671875 92.417969 76.835938 92.40625 75.992188 C 91.992188 76.457031 91.589844 76.929688 91.191406 77.402344 C 91.59375 77.789062 92 78.164062 92.441406 78.515625 Z M 92.480469 84.292969 C 92.480469 83.804688 92.46875 83.320312 92.46875 82.835938 C 92.042969 83.183594 91.613281 83.527344 91.191406 83.871094 C 91.621094 84 92.054688 84.144531 92.480469 84.292969 Z M 92.535156 93.515625 C 92.53125 91.4375 92.515625 89.355469 92.496094 87.273438 C 91.664062 88.621094 90.746094 89.90625 89.75 91.132812 C 90.605469 92.023438 91.496094 92.867188 92.535156 93.515625 Z M 92.566406 102.046875 C 92.558594 100.316406 92.550781 98.578125 92.546875 96.847656 C 91.441406 98.140625 90.234375 99.421875 88.933594 100.628906 C 90.105469 101.191406 91.300781 101.710938 92.566406 102.046875 Z M 92.585938 112.226562 C 92.578125 109.488281 92.578125 106.742188 92.574219 103.996094 C 92.363281 103.953125 92.160156 103.902344 91.957031 103.847656 C 89.601562 105.433594 87.171875 106.785156 84.984375 108.511719 C 87.5 109.792969 90.035156 111.027344 92.585938 112.226562 Z M 92.589844 124.738281 C 92.589844 121.722656 92.589844 118.699219 92.589844 115.679688 C 90.945312 117.449219 89.324219 119.242188 87.738281 121.066406 C 89.25 122.429688 90.785156 123.757812 92.589844 124.738281 Z M 92.636719 155.054688 C 92.636719 154.140625 92.625 153.230469 92.625 152.308594 C 92.601562 145.105469 92.597656 137.902344 92.597656 130.695312 C 91.46875 135.546875 89.785156 140.238281 88.328125 145.007812 C 89.738281 148.371094 91.140625 151.742188 92.636719 155.054688 Z M 94.167969 78.238281 C 94.476562 77.964844 94.785156 77.679688 95.082031 77.390625 C 94.773438 77.035156 94.472656 76.679688 94.15625 76.335938 C 94.164062 76.96875 94.164062 77.605469 94.167969 78.238281 Z M 96.664062 91.109375 C 95.792969 90.054688 94.980469 88.964844 94.222656 87.832031 C 94.234375 89.644531 94.246094 91.457031 94.257812 93.28125 C 95.148438 92.660156 95.921875 91.902344 96.664062 91.109375 Z M 97.601562 100.597656 C 96.410156 99.523438 95.296875 98.386719 94.273438 97.242188 C 94.285156 98.8125 94.296875 100.375 94.300781 101.945312 C 95.445312 101.605469 96.527344 101.125 97.601562 100.597656 Z M 94.207031 84.175781 C 94.515625 84.058594 94.832031 83.953125 95.152344 83.851562 C 94.832031 83.605469 94.515625 83.355469 94.199219 83.105469 C 94.199219 83.460938 94.199219 83.820312 94.207031 84.175781 Z M 95.152344 68.554688 C 95.148438 68.523438 95.136719 68.5 95.132812 68.464844 C 94.726562 66.292969 94.402344 64.101562 94.0625 61.914062 C 94.085938 64.140625 94.097656 66.359375 94.113281 68.582031 C 94.460938 68.578125 94.804688 68.566406 95.152344 68.554688 Z M 94.59375 154.8125 C 96.011719 151.5625 97.34375 148.25 98.679688 144.945312 C 97.292969 140.570312 95.707031 136.261719 94.535156 131.835938 C 94.632812 139.492188 94.707031 147.15625 94.59375 154.8125 Z M 96.175781 73.257812 C 95.867188 72.003906 95.589844 70.742188 95.335938 69.476562 C 95.308594 69.480469 95.285156 69.496094 95.253906 69.503906 C 94.878906 69.515625 94.5 69.527344 94.117188 69.535156 C 94.125 70.695312 94.128906 71.859375 94.136719 73.023438 C 94.816406 73.097656 95.496094 73.167969 96.175781 73.257812 Z M 94.351562 112.078125 C 96.78125 110.902344 99.1875 109.691406 101.574219 108.445312 C 99.371094 106.753906 96.992188 105.40625 94.59375 103.835938 C 94.5 103.863281 94.402344 103.886719 94.308594 103.914062 C 94.328125 106.632812 94.339844 109.359375 94.351562 112.078125 Z M 99.011719 121.011719 C 97.488281 119.3125 95.945312 117.628906 94.371094 115.976562 C 94.378906 116.324219 94.378906 116.6875 94.378906 117.039062 C 94.390625 119.558594 94.417969 122.074219 94.445312 124.59375 C 96.136719 123.617188 97.578125 122.328125 99.011719 121.011719 Z M 96.804688 75.78125 C 96.671875 75.269531 96.542969 74.757812 96.417969 74.238281 C 95.664062 74.144531 94.898438 74.054688 94.140625 73.980469 C 94.140625 74.296875 94.148438 74.609375 94.148438 74.929688 C 94.699219 75.515625 95.234375 76.117188 95.761719 76.730469 C 96.101562 76.402344 96.449219 76.085938 96.804688 75.78125 Z M 96.277344 83.527344 C 96.660156 83.429688 97.039062 83.347656 97.421875 83.261719 C 96.371094 82.789062 95.308594 82.335938 94.234375 81.929688 C 94.910156 82.46875 95.589844 83.007812 96.277344 83.527344 Z M 98.34375 86.230469 C 97.578125 85.6875 96.824219 85.128906 96.078125 84.566406 C 95.679688 84.679688 95.28125 84.792969 94.886719 84.925781 C 96.050781 85.347656 97.207031 85.769531 98.34375 86.230469 Z M 97.695312 79.097656 C 97.484375 78.324219 97.273438 77.554688 97.0625 76.785156 C 96.824219 76.992188 96.585938 77.207031 96.359375 77.425781 C 96.808594 77.976562 97.257812 78.53125 97.695312 79.097656 Z M 97.3125 90.40625 C 98.109375 89.523438 98.902344 88.644531 99.792969 87.882812 C 97.976562 87.042969 96.101562 86.363281 94.210938 85.695312 C 94.210938 85.800781 94.210938 85.90625 94.21875 86.011719 C 95.136719 87.558594 96.175781 89.019531 97.3125 90.40625 Z M 101.875 96.457031 C 100.234375 95 98.683594 93.453125 97.261719 91.796875 C 96.492188 92.621094 95.695312 93.421875 94.777344 94.070312 C 97.191406 94.703125 99.570312 95.488281 101.875 96.457031 Z M 98.390625 81.632812 C 98.390625 81.621094 98.386719 81.613281 98.386719 81.597656 C 97.523438 80.402344 96.621094 79.222656 95.675781 78.09375 C 95.191406 78.558594 94.699219 79.027344 94.175781 79.453125 C 94.175781 79.597656 94.179688 79.742188 94.179688 79.886719 C 95.609375 80.402344 97.007812 81 98.390625 81.632812 Z M 98.5 100.144531 C 99.613281 99.578125 100.714844 99 101.867188 98.511719 C 99.453125 97.441406 96.9375 96.609375 94.390625 95.933594 C 95.628906 97.371094 97.007812 98.8125 98.5 100.144531 Z M 99.652344 85.976562 C 99.460938 85.324219 99.269531 84.675781 99.078125 84.023438 C 99.023438 84 98.957031 83.972656 98.902344 83.9375 C 98.347656 84.027344 97.792969 84.136719 97.25 84.265625 C 98.042969 84.851562 98.84375 85.417969 99.652344 85.976562 Z M 93.597656 125.664062 C 97.40625 126.132812 100.3125 126.5 103.550781 126.976562 C 102.042969 125.191406 100.738281 123.433594 99.195312 121.6875 C 97.59375 123.167969 95.5 124.621094 93.597656 125.648438 C 93.597656 125.652344 93.597656 125.664062 93.597656 125.664062 Z M 102.691406 104.457031 C 101.457031 103.703125 100.261719 102.839844 99.117188 101.90625 C 98.347656 102.300781 97.578125 102.6875 96.792969 103.027344 C 98.769531 103.488281 100.738281 103.953125 102.691406 104.457031 Z M 99.238281 143.578125 C 100.269531 141.035156 101.3125 138.507812 102.425781 136 C 99.96875 133.386719 97.535156 130.738281 94.734375 128.496094 C 95.808594 133.644531 97.609375 138.574219 99.238281 143.578125 Z M 102.898438 96.09375 C 102.042969 93.59375 101.21875 91.082031 100.433594 88.558594 C 99.511719 89.316406 98.707031 90.210938 97.902344 91.09375 C 99.441406 92.878906 101.125 94.539062 102.898438 96.09375 Z M 100.40625 119.722656 C 101.386719 118.832031 102.394531 117.972656 103.496094 117.234375 C 101.035156 116.5625 98.589844 115.847656 96.160156 115.09375 C 97.601562 116.617188 99.011719 118.160156 100.40625 119.722656 Z M 102.847656 135.0625 C 103.75 133.0625 104.695312 131.074219 105.703125 129.132812 C 102.238281 128.574219 98.734375 128.164062 95.242188 127.691406 C 98.003906 129.90625 100.425781 132.484375 102.847656 135.0625 Z M 102.582031 107.917969 C 103.605469 107.375 104.617188 106.816406 105.628906 106.253906 C 102.636719 105.367188 99.585938 104.65625 96.542969 103.941406 C 98.613281 105.210938 100.707031 106.390625 102.582031 107.917969 Z M 110.285156 117.988281 C 108.234375 115.6875 106.429688 113.171875 104.3125 110.917969 C 103.683594 110.257812 102.992188 109.652344 102.320312 109.09375 C 99.671875 110.488281 96.769531 111.824219 94.230469 113.136719 C 94.230469 113.15625 94.230469 113.175781 94.230469 113.203125 C 94.230469 113.363281 94.589844 113.519531 94.738281 113.679688 C 99.839844 115.316406 105.078125 116.722656 110.285156 117.988281 Z M 106.164062 105.183594 C 105.476562 103.355469 104.8125 101.527344 104.152344 99.6875 C 102.714844 100.121094 101.363281 100.761719 100.03125 101.441406 C 101.945312 102.964844 104.003906 104.28125 106.164062 105.183594 Z M 106.792969 127.117188 C 107.464844 125.894531 108.164062 124.6875 108.902344 123.5 C 107.203125 121.757812 105.625 119.917969 104.257812 117.867188 C 103.09375 118.609375 102.042969 119.492188 101.019531 120.410156 C 102.980469 122.621094 104.898438 124.851562 106.792969 127.117188 Z M 110.976562 117.339844 C 109.726562 114.324219 108.492188 111.300781 107.324219 108.25 C 107.128906 107.738281 106.9375 107.226562 106.742188 106.714844 C 105.625 107.347656 104.496094 107.972656 103.363281 108.570312 C 103.699219 108.878906 104.027344 109.191406 104.347656 109.535156 C 106.6875 112.027344 108.695312 114.792969 110.976562 117.339844 Z M 114.957031 129.183594 C 113.378906 127.761719 111.804688 126.351562 110.285156 124.882812 C 109.714844 125.8125 109.167969 126.761719 108.636719 127.710938 C 110.757812 128.109375 112.871094 128.585938 114.957031 129.183594 Z M 111.667969 119.417969 C 111.625 119.390625 111.582031 119.367188 111.535156 119.332031 C 111.511719 119.308594 111.492188 119.28125 111.46875 119.253906 C 109.410156 118.769531 107.359375 118.242188 105.304688 117.707031 C 106.539062 119.507812 107.929688 121.148438 109.421875 122.695312 C 110.140625 121.582031 110.882812 120.488281 111.667969 119.417969 Z M 115.964844 128.824219 C 114.839844 126.328125 113.722656 123.832031 112.648438 121.320312 C 112.007812 122.226562 111.390625 123.144531 110.796875 124.074219 C 112.472656 125.703125 114.226562 127.25 115.964844 128.824219 Z M 117.34375 131.820312 C 117.335938 131.796875 117.328125 131.773438 117.3125 131.75 C 117.152344 131.800781 116.972656 131.800781 116.765625 131.730469 C 114.191406 130.859375 111.570312 130.214844 108.925781 129.699219 C 110.539062 131.667969 112.140625 133.65625 113.722656 135.644531 C 114.824219 134.277344 115.972656 132.933594 117.34375 131.820312 Z M 114.320312 136.40625 C 115.582031 138.007812 116.84375 139.605469 118.09375 141.214844 C 117.546875 138.542969 117.121094 135.867188 117.269531 133.136719 C 116.1875 134.132812 115.238281 135.261719 114.320312 136.40625 Z M 119.421875 142.925781 C 122.617188 147.046875 125.792969 151.191406 129 155.304688 C 125.234375 148.167969 121.609375 140.957031 118.1875 133.65625 C 118.105469 136.792969 118.765625 139.859375 119.421875 142.925781 Z M 132.6875 158.210938 C 132.867188 158.546875 132.828125 158.859375 132.679688 159.101562 C 132.582031 159.542969 132.179688 159.8125 131.722656 159.832031 C 131.351562 159.851562 130.984375 159.863281 130.617188 159.875 C 130.210938 159.894531 129.867188 159.585938 129.742188 159.21875 C 129.636719 159.160156 129.535156 159.085938 129.449219 158.964844 C 122.019531 149.480469 114.796875 139.808594 107.136719 130.503906 C 102.339844 139.835938 99 149.984375 94.574219 159.457031 C 94.351562 159.929688 93.929688 160.011719 93.5625 159.875 C 93.1875 159.972656 92.785156 159.863281 92.558594 159.414062 C 88.042969 150.007812 84.621094 139.902344 79.726562 130.632812 C 72.203125 139.988281 65.113281 149.691406 57.824219 159.207031 C 57.679688 159.40625 57.496094 159.519531 57.304688 159.570312 C 57.339844 160.078125 57.007812 160.605469 56.328125 160.589844 L 55.058594 160.550781 C 54.753906 160.542969 54.609375 160.101562 54.609375 159.648438 C 54.382812 159.371094 54.292969 158.980469 54.503906 158.585938 C 63.265625 141.796875 71.308594 124.582031 77.851562 106.796875 C 81.074219 98.046875 83.996094 89.171875 86.351562 80.144531 C 88.578125 71.621094 89.625 63.03125 91.300781 54.414062 C 91.433594 53.714844 92.105469 53.617188 92.589844 53.882812 C 92.839844 53.777344 93.140625 53.769531 93.398438 53.871094 C 93.898438 53.632812 94.578125 53.761719 94.726562 54.457031 C 96.574219 63.441406 97.753906 72.382812 100.269531 81.25 C 102.808594 90.234375 105.796875 99.09375 109.171875 107.796875 C 115.898438 125.097656 123.917969 141.855469 132.6875 158.210938 " fill-opacity="1" fill-rule="nonzero"/></g><path fill="#000000" d="M 105.078125 31.835938 C 117.097656 37.554688 124.304688 51.097656 121.179688 64.222656 C 120.480469 67.136719 119.347656 69.941406 117.796875 72.507812 C 115.972656 75.542969 113.585938 78.238281 110.789062 80.417969 C 109.394531 81.515625 107.90625 82.472656 106.339844 83.296875 C 105.746094 83.605469 104.867188 84.242188 104.226562 83.777344 C 103.457031 83.210938 103.804688 82.410156 104.484375 82.082031 C 105.453125 81.613281 106.390625 81.101562 107.300781 80.535156 C 109.078125 79.414062 110.730469 78.105469 112.21875 76.625 C 117.164062 71.6875 120.070312 64.949219 119.960938 57.957031 C 119.734375 43.5 107.835938 30.84375 92.960938 31.078125 C 78.4375 31.304688 65.722656 43.152344 65.957031 57.957031 C 66.066406 64.789062 68.773438 71.4375 73.511719 76.382812 C 75.457031 78.414062 77.71875 80.140625 80.191406 81.488281 C 80.8125 81.832031 81.449219 82.140625 82.097656 82.433594 C 82.695312 82.703125 83.535156 82.859375 84.074219 83.226562 C 84.539062 83.550781 84.460938 84.234375 84.117188 84.617188 C 83.621094 85.179688 83.042969 84.941406 82.445312 84.703125 C 80.972656 84.136719 79.539062 83.46875 78.171875 82.667969 C 75.394531 81.054688 72.890625 78.964844 70.855469 76.472656 C 62.253906 65.949219 61.859375 51.085938 70.183594 40.265625 C 78.171875 29.886719 93.195312 26.179688 105.078125 31.835938 " fill-opacity="1" fill-rule="nonzero"/><path fill="#000000" d="M 92.960938 34.238281 C 105.730469 34.476562 117.03125 44.871094 116.785156 57.957031 C 116.734375 60.675781 116.230469 63.382812 115.292969 65.9375 C 114.097656 69.160156 112.207031 72.117188 109.769531 74.550781 C 108.5625 75.765625 107.230469 76.847656 105.785156 77.777344 C 105.101562 78.214844 101.703125 80.601562 101.730469 78.371094 C 101.734375 77.789062 102.195312 77.597656 102.636719 77.371094 C 103.683594 76.847656 104.695312 76.25 105.652344 75.574219 C 111.371094 71.550781 115.011719 64.972656 114.878906 57.957031 C 114.660156 46.25 105.066406 35.910156 92.960938 36.136719 C 81.199219 36.355469 70.8125 45.90625 71.042969 57.957031 C 71.175781 64.824219 74.507812 71.375 80.078125 75.453125 C 81.246094 76.3125 82.5 77.0625 83.816406 77.671875 C 84.382812 77.933594 85.183594 78.066406 85.460938 78.640625 C 85.855469 79.464844 84.984375 80.019531 84.261719 79.875 C 83.46875 79.707031 82.621094 79.175781 81.914062 78.792969 C 80.398438 77.996094 78.964844 77.039062 77.640625 75.949219 C 75.019531 73.777344 72.835938 71.066406 71.351562 68.003906 C 69.835938 64.878906 69.074219 61.417969 69.132812 57.957031 C 69.378906 45.242188 79.816406 33.996094 92.960938 34.238281 " fill-opacity="1" fill-rule="nonzero"/><path fill="#000000" d="M 111.703125 57.957031 C 111.632812 60.734375 110.945312 63.492188 109.722656 65.992188 C 108.164062 69.179688 105.742188 71.949219 102.738281 73.851562 C 102.164062 74.210938 101.273438 74.953125 100.570312 74.640625 C 99.984375 74.371094 99.851562 73.738281 100.144531 73.242188 C 100.707031 72.273438 102.066406 71.953125 102.917969 71.324219 C 104.285156 70.3125 105.503906 69.097656 106.511719 67.722656 C 108.515625 64.988281 109.878906 61.375 109.796875 57.957031 C 109.578125 48.996094 102.304688 40.96875 92.960938 41.195312 C 83.957031 41.414062 75.898438 48.652344 76.125 57.957031 C 76.214844 61.457031 77.398438 64.910156 79.433594 67.761719 C 80.453125 69.175781 81.675781 70.445312 83.070312 71.496094 C 83.761719 72.019531 84.5 72.488281 85.265625 72.890625 C 85.820312 73.191406 86.714844 73.339844 86.765625 74.0625 C 86.929688 76.207031 83.90625 74.152344 83.179688 73.714844 C 81.730469 72.835938 80.390625 71.765625 79.21875 70.546875 C 76.859375 68.09375 75.183594 65 74.53125 61.660156 C 74.289062 60.441406 74.1875 59.195312 74.21875 57.957031 C 74.464844 47.988281 82.566406 39.046875 92.960938 39.296875 C 103.355469 39.550781 111.449219 47.609375 111.703125 57.957031 " fill-opacity="1" fill-rule="nonzero"/></svg>