<svg xmlns="http://www.w3.org/2000/svg" xmlns:xlink="http://www.w3.org/1999/xlink" width="75" zoomAndPan="magnify" viewBox="0 0 56.25 56.249997" height="75" preserveAspectRatio="xMidYMid meet" version="1.0"><defs><clipPath id="2d506190d6"><path d="M 0 0 L 55.511719 0 L 55.511719 55.511719 L 0 55.511719 Z M 0 0 " clip-rule="nonzero"/></clipPath><clipPath id="bb3d53bcff"><path d="M 27.753906 0 C 12.425781 0 0 12.425781 0 27.753906 C 0 43.082031 12.425781 55.511719 27.753906 55.511719 C 43.082031 55.511719 55.511719 43.082031 55.511719 27.753906 C 55.511719 12.425781 43.082031 0 27.753906 0 Z M 27.753906 0 " clip-rule="nonzero"/></clipPath><clipPath id="f45d3a5728"><path d="M 5.550781 10 L 45 10 L 45 45.5 L 5.550781 45.5 Z M 5.550781 10 " clip-rule="nonzero"/></clipPath><clipPath id="40102798d4"><path d="M 28 17 L 50.699219 17 L 50.699219 30 L 28 30 Z M 28 17 " clip-rule="nonzero"/></clipPath></defs><g clip-path="url(#2d506190d6)"><g clip-path="url(#bb3d53bcff)"><path fill="#ffffff" d="M 0 0 L 55.511719 0 L 55.511719 55.511719 L 0 55.511719 Z M 0 0 " fill-opacity="1" fill-rule="nonzero"/><path stroke-linecap="butt" transform="matrix(0.740132, 0, 0, 0.740132, 0.0000015, -0.000000986842)" fill="none" stroke-linejoin="miter" d="M 37.498613 0.00000133333 C 16.788611 0.00000133333 -0.00000202667 16.788614 -0.00000202667 37.498616 C -0.00000202667 58.208618 16.788611 75.002508 37.498613 75.002508 C 58.208615 75.002508 75.002505 58.208618 75.002505 37.498616 C 75.002505 16.788614 58.208615 0.00000133333 37.498613 0.00000133333 Z M 37.498613 0.00000133333 " stroke="#000000" stroke-width="2" stroke-opacity="1" stroke-miterlimit="4"/></g></g><g clip-path="url(#f45d3a5728)"><path fill="#000000" d="M 9.578125 34.617188 C 9.578125 30.832031 12.644531 27.761719 16.425781 27.761719 C 17.542969 27.761719 18.597656 28.039062 19.527344 28.511719 L 16.992188 32.007812 C 16.808594 31.96875 16.621094 31.949219 16.425781 31.949219 C 14.953125 31.949219 13.757812 33.144531 13.757812 34.617188 C 13.757812 36.089844 14.953125 37.285156 16.425781 37.285156 C 17.898438 37.285156 19.09375 36.089844 19.09375 34.617188 C 19.09375 33.78125 18.707031 33.035156 18.109375 32.546875 L 20.746094 29.300781 C 22.285156 30.558594 23.273438 32.472656 23.273438 34.617188 C 23.273438 38.402344 20.207031 41.472656 16.425781 41.472656 C 12.644531 41.472656 9.578125 38.402344 9.578125 34.617188 Z M 5.550781 34.617188 C 5.550781 40.628906 10.421875 45.5 16.425781 45.5 C 22.429688 45.5 27.300781 40.628906 27.300781 34.617188 C 27.300781 31.210938 25.734375 28.171875 23.285156 26.175781 L 33.199219 13.96875 C 33.199219 13.96875 34.886719 13.796875 36.574219 15.554688 C 38.257812 17.3125 39.910156 18.136719 40.015625 17.3125 C 40.117188 16.484375 39.292969 16.726562 38.464844 16.347656 C 37.640625 15.96875 35.882812 13.9375 34.75 13.488281 L 35.402344 12.730469 L 44.039062 16.726562 L 44.96875 14.832031 C 44.96875 14.832031 34.75 9.976562 32.890625 10.113281 L 28.847656 15.679688 L 28.488281 15.261719 C 27.550781 14.183594 26.175781 13.589844 24.75 13.652344 L 23.273438 13.710938 C 23.273438 13.710938 22.894531 17.636719 23.273438 20.53125 L 25.023438 20.949219 L 21.917969 25.222656 C 20.304688 24.277344 18.429688 23.734375 16.425781 23.734375 C 10.421875 23.734375 5.550781 28.605469 5.550781 34.617188 " fill-opacity="1" fill-rule="nonzero"/></g><g clip-path="url(#40102798d4)"><path fill="#000000" d="M 50.699219 27.453125 C 50.699219 27.453125 45.382812 22.492188 40.582031 21.5625 C 35.78125 20.632812 38.695312 24.105469 41.304688 23.425781 C 43.914062 22.742188 44.867188 25.230469 44.867188 25.230469 C 44.867188 25.230469 43.144531 23.785156 41.492188 24.507812 C 39.839844 25.230469 36.539062 25.265625 35.332031 23.371094 C 34.128906 21.476562 31.894531 21.421875 31.375 22.363281 C 30.859375 23.304688 31.925781 26.679688 37.914062 26.160156 C 43.902344 25.644531 44.796875 28.539062 44.796875 28.539062 C 44.796875 28.539062 42.527344 26.851562 40.015625 27.4375 C 37.996094 27.90625 38.792969 28.84375 40.207031 28.78125 C 37.617188 29.265625 31.21875 29.941406 29.066406 25.34375 C 27.800781 22.636719 29.25 19.394531 32.066406 18.398438 C 36.035156 17 42.851562 17.027344 50.699219 27.453125 " fill-opacity="1" fill-rule="nonzero"/></g></svg>